Coordinates
version=1
nRows=21
nColumns=22
inDegrees=yes

Units are S.I. units (second, meters, Newtons, ...)
If the header above contains a line with 'inDegrees', this indicates whether rotational values are in degrees (yes) or radians (no).

endheader
time	pelvis_tilt	pelvis_list	pelvis_rotation	pelvis_tx	pelvis_ty	pelvis_tz	hip_flexion_r	hip_adduction_r	hip_rotation_r	knee_angle_r	ankle_angle_r	subtalar_angle_r	hip_flexion_l	hip_adduction_l	hip_rotation_l	knee_angle_l	ankle_angle_l	subtalar_angle_l	lumbar_extension	lumbar_bending	lumbar_rotation
      3.28000000	      5.74442689	     -8.20370326	    -45.17823687	      1.07576336	      0.81568991	      0.92407617	     34.04209520	     -3.46712658	     -0.83097477	    -80.47059676	     18.10478326	     -1.96400832	     24.08272750	     -9.15553162	     -0.04415481	    -51.50369455	     21.05010546	     11.59918724	    -12.68361618	      0.42163509	     11.96373581
      3.29000000	      5.27960195	     -8.27722111	    -45.00975696	      1.07990952	      0.82026956	      0.92823077	     34.05380216	     -2.87309905	     -1.11371786	    -76.78941769	     17.64471623	     -1.42529613	     23.31573766	     -9.39585531	      0.30748034	    -50.32534648	     20.89260833	     11.49814005	    -12.51143664	      0.84511282	     11.73965751
      3.30000000	      4.83024887	     -8.31423982	    -44.84932040	      1.08386235	      0.82503385	      0.93242176	     33.86731890	     -2.29957726	     -1.19864633	    -72.94535842	     17.01396530	     -0.44189231	     22.49778515	     -9.63270505	      0.59335366	    -49.00812609	     20.63891635	     11.44007472	    -12.32783124	      1.22775946	     11.58925976
      3.31000000	      4.37027039	     -8.34508438	    -44.67335824	      1.08771000	      0.82986676	      0.93661874	     33.47659079	     -1.72871283	     -1.14182274	    -68.98620006	     16.19320143	      0.41351631	     21.65562780	     -9.89660342	      0.84988927	    -47.59711708	     20.38697173	     11.39807088	    -12.12941499	      1.62551383	     11.45209162
      3.32000000	      3.93180078	     -8.34532098	    -44.47077450	      1.09152486	      0.83467350	      0.94078092	     32.90023382	     -1.22774125	     -0.94622249	    -64.98877862	     15.17502777	      1.34618451	     20.79504097	    -10.13762787	      1.07114969	    -46.11256179	     20.10377295	     11.37889174	    -11.91108741	      1.99962744	     11.32777258
      3.33000000	      3.52466953	     -8.31140613	    -44.22340931	      1.09537251	      0.83935357	      0.94487578	     32.15538394	     -0.83047949	     -0.65738223	    -61.02353450	     13.98075736	      2.23292442	     19.93166935	    -10.33350891	      1.28193789	    -44.58941355	     19.80004678	     11.37511595	    -11.67063468	      2.34676292	     11.18550986
      3.34000000	      3.15699493	     -8.24993079	    -43.91677508	      1.09930070	      0.84382734	      0.94890479	     31.25444568	     -0.55604896	     -0.33383597	    -57.15979969	     12.64062805	      3.03259038	     19.07594568	    -10.47755023	      1.50141883	    -43.06488226	     19.49770305	     11.38392105	    -11.40962167	      2.66649566	     11.00934474
      3.35000000	      2.80871784	     -8.17227167	    -43.53292871	      1.10330719	      0.84797557	      0.95286116	     30.23111648	     -0.38478682	     -0.03601449	    -53.45696335	     11.19511026	      3.51538680	     18.27830477	    -10.59148548	      1.76123831	    -41.60361419	     19.22128050	     11.37609824	    -11.11808857	      2.98386913	     10.74763546
      3.36000000	      2.53739250	     -8.04540593	    -43.07604701	      1.10741916	      0.85177396	      0.95673950	     29.10511331	     -0.37761436	      0.23307830	    -49.98880629	      9.72774437	      4.01678392	     17.50117387	    -10.60350765	      2.04972036	    -40.18712986	     18.93787372	     11.40279728	    -10.81344777	      3.22609166	     10.43549393
      3.37000000	      2.32779003	     -7.87746891	    -42.56156691	      1.11159170	      0.85513219	      0.96061160	     27.91121250	     -0.48903037	      0.46274979	    -46.80413820	      8.32268950	      4.54204748	     16.76893830	    -10.54601282	      2.35230603	    -38.85989328	     18.68978606	     11.46804729	    -10.48871883	      3.39784734	     10.09630968
      3.38000000	      2.12745080	     -7.70154483	    -41.94164028	      1.11582896	      0.85794099	      0.96440944	     26.67039098	     -0.66206430	      0.56771848	    -43.90137166	      7.09843273	      4.77631406	     16.16895491	    -10.46578390	      2.75535491	    -37.71404058	     18.50696815	     11.50804820	    -10.13000599	      3.57606122	      9.62939705
      3.39000000	      1.99003412	     -7.49995433	    -41.27890034	      1.12006116	      0.86022076	      0.96823114	     25.39646466	     -0.90356539	      0.61915519	    -41.32861582	      6.16543933	      5.00656608	     15.62493150	    -10.33511151	      3.17232587	    -36.70862015	     18.39601453	     11.58538569	     -9.77406657	      3.68325067	      9.15550444
      3.40000000	      1.89109258	     -7.27543155	    -40.57663872	      1.12425885	      0.86189697	      0.97206012	     24.12997961	     -1.18444885	      0.60837491	    -39.09537118	      5.64210399	      5.20405824	     15.17954163	    -10.17213240	      3.61093757	    -35.88884136	     18.37419814	     11.69692644	     -9.40941421	      3.74106028	      8.66385206
      3.41000000	      1.82224602	     -7.03064111	    -39.85672106	      1.12834230	      0.86294621	      0.97591616	     22.90244611	     -1.48046387	      0.54380237	    -37.20167427	      5.61465065	      5.32363913	     14.84285489	     -9.99283751	      4.05129203	    -35.26995659	     18.45784826	     11.84220520	     -9.04549703	      3.74585480	      8.16889605
      3.42000000	      1.77388399	     -6.76265481	    -39.14341199	      1.13225476	      0.86337272	      0.97978207	     21.74905499	     -1.77633811	      0.44341847	    -35.63138434	      6.08200972	      5.31895080	     14.62144322	     -9.79871140	      4.48733868	    -34.85267554	     18.62074730	     12.02001391	     -8.68665450	      3.69969855	      7.70206169
      3.43000000	      1.74858963	     -6.48535000	    -38.46493026	      1.13594557	      0.86320257	      0.98366839	     20.68995009	     -2.05559614	      0.31988222	    -34.37909740	      7.03545030	      5.16418568	     14.50387893	     -9.60666015	      4.88724416	    -34.64990620	     18.88920599	     12.22467044	     -8.35686230	      3.61076539	      7.28971850
      3.44000000	      1.74305382	     -6.19906020	    -37.84916223	      1.13937649	      0.86249048	      0.98755145	     19.76639020	     -2.31341583	      0.17671531	    -33.43649535	      8.32989642	      4.88652038	     14.47609681	     -9.42086995	      5.20949911	    -34.63835826	     19.26499166	     12.43509424	     -8.06750742	      3.48576670	      6.93280077
      3.45000000	      1.75712778	     -5.94904202	    -37.33935090	      1.14240000	      0.86136550	      0.99145430	     18.97492501	     -2.48351722	      0.07599642	    -32.76966149	      9.80517860	      4.21275205	     14.49852673	     -9.28587947	      5.46525142	    -34.80687641	     19.68189400	     12.76734002	     -7.87412082	      3.34963380	      6.72922923
      3.46000000	      1.77243676	     -5.69240173	    -36.92940074	      1.14504139	      0.85980891	      0.99524747	     18.42826268	     -2.62105021	     -0.01415102	    -32.45164839	     11.31918041	      3.59188774	     14.61622622	     -9.16099991	      5.64965656	    -35.14645558	     20.18715082	     13.02331101	     -7.73795558	      3.19769905	      6.61015355
      3.47000000	      1.79545987	     -5.46195018	    -36.64167176	      1.14724275	      0.85798871	      0.99892205	     18.11959315	     -2.69661250	     -0.06229275	    -32.47962625	     12.75350268	      2.99039205	     14.77245773	     -9.06881829	      5.77676987	    -35.60469280	     20.71187555	     13.25457568	     -7.69876998	      3.05079730	      6.61327732
      3.48000000	      1.81078322	     -5.29289179	    -36.50513083	      1.14898658	      0.85602471	      1.00248738	     18.04011282	     -2.66599288	     -0.03376647	    -32.83151004	     13.99516603	      2.34194044	     14.94519927	     -9.06503642	      5.78119387	    -36.16608568	     21.28592884	     13.47498567	     -7.76909671	      2.95469189	      6.75545697
